<?xml version="1.0" encoding="UTF-8"?>
<!DOCTYPE svg PUBLIC "-//W3C//DTD SVG 1.1//EN" "http://www.w3.org/Graphics/SVG/1.1/DTD/svg11.dtd">
<svg xmlns="http://www.w3.org/2000/svg" version="1.1" width="64px" height="64px" style="shape-rendering:geometricPrecision; text-rendering:geometricPrecision; image-rendering:optimizeQuality; fill-rule:evenodd; clip-rule:evenodd" xmlns:xlink="http://www.w3.org/1999/xlink">
<g><path style="opacity:0.955" fill="#151515" d="M 7.5,5.5 C 14.175,5.33375 20.8417,5.50042 27.5,6C 28,6.5 28.5,7 29,7.5C 29.6667,14.1667 29.6667,20.8333 29,27.5C 28.5,28 28,28.5 27.5,29C 20.8333,29.6667 14.1667,29.6667 7.5,29C 7,28.5 6.5,28 6,27.5C 5.33333,20.8333 5.33333,14.1667 6,7.5C 6.71719,6.9558 7.21719,6.28913 7.5,5.5 Z M 11.5,9.5 C 24.0002,6.49978 28.5002,11.1664 25,23.5C 10.2387,28.9046 5.73872,24.2379 11.5,9.5 Z"/></g>
<g><path style="opacity:0.955" fill="#151515" d="M 35.5,5.5 C 42.175,5.33375 48.8417,5.50042 55.5,6C 56,6.5 56.5,7 57,7.5C 57.6667,14.1667 57.6667,20.8333 57,27.5C 56.5,28 56,28.5 55.5,29C 48.8333,29.6667 42.1667,29.6667 35.5,29C 35,28.5 34.5,28 34,27.5C 33.3333,20.8333 33.3333,14.1667 34,7.5C 34.7172,6.9558 35.2172,6.28913 35.5,5.5 Z M 39.5,9.5 C 52.0002,6.49978 56.5002,11.1664 53,23.5C 38.2387,28.9046 33.7387,24.2379 39.5,9.5 Z"/></g>
<g><path style="opacity:0.955" fill="#151515" d="M 7.5,33.5 C 14.175,33.3337 20.8417,33.5004 27.5,34C 28,34.5 28.5,35 29,35.5C 29.6667,42.1667 29.6667,48.8333 29,55.5C 28.5,56 28,56.5 27.5,57C 20.8333,57.6667 14.1667,57.6667 7.5,57C 7,56.5 6.5,56 6,55.5C 5.33333,48.8333 5.33333,42.1667 6,35.5C 6.71719,34.9558 7.21719,34.2891 7.5,33.5 Z M 11.5,37.5 C 24.0002,34.4998 28.5002,39.1664 25,51.5C 10.2387,56.9046 5.73872,52.2379 11.5,37.5 Z"/></g>
<g><path style="opacity:0.96" fill="#151515" d="M 43.5,33.5 C 44.8333,33.5 46.1667,33.5 47.5,33.5C 47.5,36.8333 47.5,40.1667 47.5,43.5C 50.8333,43.5 54.1667,43.5 57.5,43.5C 57.5,44.8333 57.5,46.1667 57.5,47.5C 54.1667,47.5 50.8333,47.5 47.5,47.5C 47.5,50.8333 47.5,54.1667 47.5,57.5C 46.1667,57.5 44.8333,57.5 43.5,57.5C 43.5,54.1667 43.5,50.8333 43.5,47.5C 40.1667,47.5 36.8333,47.5 33.5,47.5C 33.5,46.1667 33.5,44.8333 33.5,43.5C 36.8333,43.5 40.1667,43.5 43.5,43.5C 43.5,40.1667 43.5,36.8333 43.5,33.5 Z"/></g>
</svg>
