<?xml version="1.0" encoding="UTF-8"?>
<!DOCTYPE svg PUBLIC "-//W3C//DTD SVG 1.1//EN" "http://www.w3.org/Graphics/SVG/1.1/DTD/svg11.dtd">
<svg xmlns="http://www.w3.org/2000/svg" version="1.1" width="64px" height="64px" style="shape-rendering:geometricPrecision; text-rendering:geometricPrecision; image-rendering:optimizeQuality; fill-rule:evenodd; clip-rule:evenodd" xmlns:xlink="http://www.w3.org/1999/xlink">
<g><path style="opacity:0.857" fill="#d8d8d8" d="M 27.5,-0.5 C 28.8333,-0.5 30.1667,-0.5 31.5,-0.5C 35.543,8.17551 42.2097,10.8422 51.5,7.5C 49.7179,13.0848 50.2179,18.4182 53,23.5C 54.5793,25.0412 56.4127,26.2078 58.5,27C 59.8333,28.6667 59.8333,30.3333 58.5,32C 54.6667,33.1667 52.1667,35.6667 51,39.5C 50.6432,43.5104 50.8099,47.5104 51.5,51.5C 42.5066,48.2587 35.8399,50.7587 31.5,59C 30.2068,59.49 28.8734,59.6567 27.5,59.5C 27.5,58.1667 27.5,56.8333 27.5,55.5C 8.57041,52.0037 0.737073,40.6703 4,21.5C 7.93207,10.4007 15.7654,4.4007 27.5,3.5C 27.5,2.16667 27.5,0.833333 27.5,-0.5 Z M 23.5,8.5 C 24.8333,8.5 26.1667,8.5 27.5,8.5C 27.5,22.5 27.5,36.5 27.5,50.5C 17.9756,49.653 11.8089,44.653 9,35.5C 6.55592,22.3781 11.3893,13.3781 23.5,8.5 Z M 31.5,9.5 C 35.5933,12.6399 40.26,13.9733 45.5,13.5C 44.9414,19.8276 46.9414,25.1609 51.5,29.5C 46.9414,33.8391 44.9414,39.1724 45.5,45.5C 40.3944,44.9253 35.8944,46.2587 32,49.5C 31.5045,47.5273 31.3379,45.5273 31.5,43.5C 43.2496,40.3302 46.7496,32.9968 42,21.5C 39.2967,18.0661 35.7967,16.0661 31.5,15.5C 31.5,13.5 31.5,11.5 31.5,9.5 Z M 31.5,20.5 C 36.4223,21.4281 38.7557,24.4281 38.5,29.5C 38.7436,34.0166 36.7436,37.0166 32.5,38.5C 31.5041,32.5368 31.1707,26.5368 31.5,20.5 Z"/></g>
<g><path style="opacity:0.766" fill="#d8d8d8" d="M 15.5,19.5 C 16.8333,19.5 18.1667,19.5 19.5,19.5C 19.5,20.8333 19.5,22.1667 19.5,23.5C 18.1667,23.5 16.8333,23.5 15.5,23.5C 15.5,22.1667 15.5,20.8333 15.5,19.5 Z"/></g>
<g><path style="opacity:0.879" fill="#d8d8d8" d="M 16.5,31.5 C 23.1584,30.3445 25.1584,32.8445 22.5,39C 15.7496,40.4689 13.7496,37.9689 16.5,31.5 Z"/></g>
</svg>
